# xmcd
#
# Track frame offsets:
#	150
#	14715
#	33927
#	50902
#	63980
#	81170
#	96872
#	112377
#	127657
#	143962
#	160072
#	174640
#	193852
#	210825
#	223902
#	241095
#	256795
#	272302
#	287582
#	303887
#
# Disc length: 4265 seconds
#
# Revision: 2
# Processed by: cddbd v1.5.2PL0 Copyright (c) Steve Scherf et al.
# Submitted via: audiograbber 1.83.01
#
DISCID=1d10a714
DTITLE=Top Hits Monthly Country - THC
DYEAR=2001
DGENRE=Karaoke
TTITLE0=Dixie Chicks (Vocal) - If I Fall You're Going Down With Me
TTITLE1=George Strait (Vocal) - If You Can Do Anything Else
TTITLE2=Marshall Dyllon (Vocal) - You
TTITLE3=Kenny Rogers (Vocal) - There You Go Again
TTITLE4=Lisa Angelle (Vocal) - I Will Love You
TTITLE5=Mark Mcguinn (Vocal) - Mrs Steven Rudy
TTITLE6=Aaron Tippon (Vocal) - People Like Us
TTITLE7=Leanne Rimes (Vocal) - But I Do Love You
TTITLE8=Alan Jackson (Vocal) - When Somebody Loves You
TTITLE9=Collin Raye (Vocal) - You Still Take Me There
TTITLE10=Dixie Chicks - If I Fall You're Going Down With Me
TTITLE11=Strait. George - If You Can Do Anything Else
TTITLE12=Dyllon, Marshall  - You
TTITLE13=Rogers, Kenny - There You Go Again
TTITLE14=Angelle, Lisa - I Will Love You
TTITLE15=Mcguinn, Mark - Mrs Steven Rudy
TTITLE16=Tippin, Aaron - People Like Us
TTITLE17=Rimes, Leanne - But I Do Love You
TTITLE18=Jackson,  Alan - When Somebody Loves You
TTITLE19=Raye, Collin - You Still Take Me There
EXTD=
EXTT0=
EXTT1=
EXTT2=
EXTT3=
EXTT4=
EXTT5=
EXTT6=
EXTT7=
EXTT8=
EXTT9=
EXTT10=
EXTT11=
EXTT12=
EXTT13=
EXTT14=
EXTT15=
EXTT16=
EXTT17=
EXTT18=
EXTT19=
PLAYORDER=
